<?xml version="1.0" standalone="no"?><!DOCTYPE svg PUBLIC "-//W3C//DTD SVG 1.1//EN" "http://www.w3.org/Graphics/SVG/1.1/DTD/svg11.dtd"><svg t="1499049903660" class="icon" style="" viewBox="0 0 1024 1024" version="1.1" xmlns="http://www.w3.org/2000/svg" p-id="2600" xmlns:xlink="http://www.w3.org/1999/xlink" width="200" height="200"><defs><style type="text/css"></style></defs><path d="M484.348 329.561c-12.833 12.83-34.146 12.83-47.392 0-12.743-12.995-12.743-34.117 0-47.145l141.227-141.517c42.253-41.708 97.648-62.768 152.636-62.768 118.965 0 214.644 96.249 214.644 215.438 0 54.988-20.842 110.451-62.55 152.158l-153.935 154.003c-41.741 40.755-96.282 61.146-150.796 61.146-76.267 0-145.961-40.498-184.368-104.699v-0.284c-9.465-15.406-16.582-31.987-21.825-48.54-5.177-17.564 4.831-36.309 22.27-41.519 18.105-5.175 36.561 4.735 41.675 22.527 3.4 11.623 8.543 23.030 14.707 33.672 26.587 44.564 75.412 72.551 127.539 72.551 37.965 0 75.382-14.262 104.229-42.249l153.648-153.747c28.875-28.969 43.136-67.124 43.136-105.017 0-82.467-65.977-148.381-148.376-148.381-37.96 0-76.27 14.262-104.796 43.141h-0.446l-141.231 141.231zM539.783 694.547v0l-141.232 141.455c-57.307 57.401-153.111 57.624-210.384 0.222v0-0.222c-57.402-57.337-57.402-152.856 0-210.129l152.063-152.665c29.003-28.4 66.868-42.918 105.274-42.918s76.27 14.518 105.239 42.918v0.441c8.991 8.768 16.107 18.55 22.266 28.969 6.575 10.419 11.312 21.791 14.712 33.136 5.177 18.009 23.693 27.987 41.135 22.774 17.568-5.21 28.019-23.693 22.839-41.486-5.272-17.056-12.421-33.414-20.837-48.568-9.56-15.188-20.391-29.415-32.718-42.216-42.249-41.741-97.203-62.768-152.635-62.768-55.402 0-110.389 21.027-152.636 62.768l-152.13 152.416c-82.936 83.164-82.936 221.345 0 304.951l2.319 1.718c83.387 81.258 219.058 80.555 301.999-1.209v-0.507l142.123-141.678c12.83-13.24 12.83-34.112-0.446-47.392-12.834-12.834-34.118-12.834-46.95 0v0-0.005zM539.783 694.547z" p-id="2601"></path></svg>